<svg width="64" height="22" viewBox="0 0 64 22" fill="none" xmlns="http://www.w3.org/2000/svg">
<g clip-path="url(#clip0)">
<path d="M13.3334 21.3334H8.00004V14.6667H5.33337V9.33336C5.33337 8.62611 5.61433 7.94784 6.11442 7.44774C6.61452 6.94764 7.2928 6.66669 8.00004 6.66669H13.3334C14.0406 6.66669 14.7189 6.94764 15.219 7.44774C15.7191 7.94784 16 8.62611 16 9.33336V14.6667H13.3334V21.3334Z" fill="#FF5C00"/>
<path d="M10.6667 5.33336C12.1394 5.33336 13.3333 4.13945 13.3333 2.66669C13.3333 1.19393 12.1394 2.28882e-05 10.6667 2.28882e-05C9.19391 2.28882e-05 8 1.19393 8 2.66669C8 4.13945 9.19391 5.33336 10.6667 5.33336Z" fill="#FF5C00"/>
</g>
<g clip-path="url(#clip1)">
<path d="M34.6667 21.3334H29.3334V14.6667H26.6667V9.33336C26.6667 8.62612 26.9477 7.94784 27.4478 7.44774C27.9479 6.94765 28.6262 6.66669 29.3334 6.66669H34.6667C35.374 6.66669 36.0523 6.94765 36.5524 7.44774C37.0525 7.94784 37.3334 8.62612 37.3334 9.33336V14.6667H34.6667V21.3334Z" fill="#FF5C00"/>
<path d="M32 5.33336C33.4728 5.33336 34.6667 4.13945 34.6667 2.66669C34.6667 1.19393 33.4728 2.67029e-05 32 2.67029e-05C30.5273 2.67029e-05 29.3334 1.19393 29.3334 2.66669C29.3334 4.13945 30.5273 5.33336 32 5.33336Z" fill="#FF5C00"/>
</g>
<g clip-path="url(#clip2)">
<path d="M56 21.3334H50.6667V14.6667H48V9.33336C48 8.62612 48.281 7.94784 48.781 7.44774C49.2811 6.94765 49.9594 6.66669 50.6667 6.66669H56C56.7072 6.66669 57.3855 6.94765 57.8856 7.44774C58.3857 7.94784 58.6667 8.62612 58.6667 9.33336V14.6667H56V21.3334Z" fill="#FF5C00"/>
<path d="M53.3333 5.33336C54.8061 5.33336 56 4.13945 56 2.66669C56 1.19393 54.8061 2.67029e-05 53.3333 2.67029e-05C51.8605 2.67029e-05 50.6666 1.19393 50.6666 2.66669C50.6666 4.13945 51.8605 5.33336 53.3333 5.33336Z" fill="#FF5C00"/>
</g>
<defs>
<clipPath id="clip0">
<rect width="21.3333" height="21.3333" fill="white"/>
</clipPath>
<clipPath id="clip1">
<rect x="21.3334" y="1.90735e-05" width="21.3333" height="21.3333" fill="white"/>
</clipPath>
<clipPath id="clip2">
<rect x="42.6666" y="1.90735e-05" width="21.3333" height="21.3333" fill="white"/>
</clipPath>
</defs>
</svg>
