<svg width="60" height="59" viewBox="0 0 60 59" fill="none" xmlns="http://www.w3.org/2000/svg">
<g clip-path="url(#clip0)">
<g opacity="0.6" filter="url(#filter0_f)">
<ellipse cx="26.2931" cy="52.7343" rx="4.89662" ry="0.918116" transform="rotate(-15 26.2931 52.7343)" fill="#606060" fill-opacity="0.6"/>
</g>
<path d="M32.4331 28.3668C34.119 34.6587 31.7883 37.1626 29.4507 43.6503C27.1131 50.1381 27.998 52.5941 26.3702 53.0303C24.7425 53.4664 24.0024 50.4964 19.0125 46.4472C14.0227 42.3981 10.4738 40.9943 8.78796 34.7025C7.10207 28.4107 10.869 21.2967 17.3985 19.5471C23.9279 17.7976 30.7472 22.075 32.4331 28.3668Z" fill="#0066FF" stroke="white" stroke-width="0.613237"/>
<circle cx="20.6384" cy="31.7094" r="9.26276" transform="rotate(-15 20.6384 31.7094)" fill="white"/>
<path d="M16.7497 33.2975L17.9 37.5908L25.73 35.4928L24.5796 31.1995" stroke="#0066FF" stroke-width="1.03065" stroke-miterlimit="10" stroke-linecap="square"/>
<path d="M25.3226 28.3163C25.3843 28.7216 25.2951 29.1352 25.0721 29.4779C24.8492 29.8206 24.5081 30.0684 24.1141 30.1739C23.8738 30.2343 23.6232 30.241 23.3798 30.1936C23.1365 30.1462 22.9063 30.0458 22.7054 29.8995C22.6074 30.1284 22.4591 30.3321 22.2716 30.4952C22.0842 30.6583 21.8623 30.7766 21.6227 30.8415C21.3825 30.9026 21.1318 30.9096 20.8883 30.8622C20.6448 30.8148 20.4146 30.714 20.2141 30.567C20.1139 30.7946 19.9649 30.9969 19.7778 31.1598C19.5906 31.3226 19.3699 31.4418 19.1314 31.509C18.8914 31.5727 18.6401 31.5811 18.3962 31.5336C18.1523 31.4861 17.9221 31.3839 17.7227 31.2346C17.6205 31.4607 17.4708 31.6619 17.284 31.8245C17.0971 31.987 16.8775 32.1071 16.64 32.1766C16.246 32.2822 15.8267 32.2382 15.4623 32.0529C15.0979 31.8675 14.8139 31.554 14.6646 31.1721L15.9277 27.3825L22.334 25.666L25.3226 28.3163Z" stroke="#0066FF" stroke-width="1.03065" stroke-miterlimit="10" stroke-linecap="square"/>
<path d="M20.7473 36.8278L19.9803 33.9657L22.1158 33.3935L22.8827 36.2557" stroke="#0066FF" stroke-width="1.03065" stroke-miterlimit="10"/>
<g opacity="0.6" filter="url(#filter1_f)">
<ellipse cx="34.6258" cy="52.7595" rx="4.89662" ry="0.918116" transform="rotate(15 34.6258 52.7595)" fill="#606060" fill-opacity="0.6"/>
</g>
<path d="M52.127 34.7265C50.4411 41.0183 47.1707 42.0214 41.9024 46.4712C36.6341 50.921 36.1724 53.4904 34.5447 53.0543C32.9169 52.6181 33.761 49.6759 31.4642 43.6743C29.1674 37.6727 26.7959 34.6826 28.4818 28.3908C30.1677 22.099 36.987 17.8216 43.5164 19.5711C50.0459 21.3207 53.8128 28.4347 52.127 34.7265Z" fill="#0066FF" stroke="white" stroke-width="0.613237"/>
<circle cx="40.2412" cy="31.724" r="9.26276" transform="rotate(15 40.2412 31.724)" fill="white"/>
<path d="M36.034 31.1428L34.8836 35.436L42.7136 37.5341L43.8639 33.2408" stroke="#0066FF" stroke-width="1.03065" stroke-miterlimit="10" stroke-linecap="square"/>
<path d="M45.949 31.1153C45.7997 31.4972 45.5157 31.8108 45.1513 31.9961C44.7868 32.1814 44.3675 32.2255 43.9735 32.1198C43.7353 32.052 43.5149 31.9325 43.3279 31.7698C43.1408 31.607 42.9916 31.405 42.8908 31.1778C42.6915 31.3271 42.4613 31.4293 42.2174 31.4768C41.9734 31.5243 41.7221 31.516 41.4822 31.4523C41.2437 31.3851 41.023 31.2658 40.8358 31.103C40.6487 30.9402 40.4997 30.7378 40.3995 30.5103C40.199 30.6572 39.9688 30.758 39.7253 30.8055C39.4818 30.8529 39.231 30.8458 38.9909 30.7847C38.7512 30.7199 38.5294 30.6015 38.3419 30.4384C38.1545 30.2753 38.0062 30.0717 37.9082 29.8427C37.7065 29.9874 37.4763 30.0869 37.2332 30.1342C36.9902 30.1816 36.7399 30.1758 36.4995 30.1172C36.1055 30.0117 35.7644 29.7639 35.5414 29.4212C35.3185 29.0785 35.2293 28.6649 35.291 28.2595L38.2796 25.6092L44.6859 27.3258L45.949 31.1153Z" stroke="#0066FF" stroke-width="1.03065" stroke-miterlimit="10" stroke-linecap="square"/>
<path d="M37.7309 36.1989L38.4978 33.3368L40.6332 33.909L39.8663 36.7711" stroke="#0066FF" stroke-width="1.03065" stroke-miterlimit="10"/>
<g opacity="0.6" filter="url(#filter2_f)">
<ellipse cx="30.3292" cy="52.5896" rx="7.06917" ry="1.32547" fill="#606060" fill-opacity="0.6"/>
</g>
<path d="M47.9964 20.9036C47.9964 30.3074 43.8106 32.9282 38.1267 41.1019C32.4428 49.2757 32.759 53.0311 30.3262 53.0311C27.8934 53.0311 27.9711 48.6129 22.5257 41.1019C17.0803 33.5909 12.6561 30.3074 12.6561 20.9036C12.6561 11.4998 20.5673 2.98682 30.3262 2.98682C40.0852 2.98682 47.9964 11.4998 47.9964 20.9036Z" fill="url(#paint0_linear)" stroke="white" stroke-width="0.88532"/>
<path d="M24.2526 21.9193V28.336H35.9553V21.9193" stroke="white" stroke-width="1.48793" stroke-miterlimit="10" stroke-linecap="square"/>
<path d="M38.0687 18.1762C38.0033 18.7645 37.7244 19.3079 37.2854 19.7025C36.8465 20.0971 36.2782 20.3152 35.6893 20.3151C35.3318 20.3095 34.9798 20.2252 34.6581 20.0682C34.3365 19.9111 34.0529 19.6851 33.8275 19.4061C33.6053 19.6887 33.3224 19.9172 33.0001 20.0746C32.6777 20.232 32.3241 20.3142 31.9657 20.3151C31.608 20.3105 31.2557 20.2267 30.9339 20.0696C30.6121 19.9124 30.3287 19.6859 30.104 19.4061C29.8792 19.6859 29.5959 19.9124 29.274 20.0696C28.9522 20.2267 28.5999 20.3105 28.2422 20.3151C27.8838 20.3142 27.5302 20.232 27.2078 20.0746C26.8855 19.9172 26.6026 19.6887 26.3804 19.4061C26.1533 19.6832 25.8694 19.9078 25.5481 20.0647C25.2268 20.2216 24.8757 20.307 24.5186 20.3151C23.9297 20.3152 23.3614 20.0971 22.9225 19.7025C22.4835 19.3079 22.2046 18.7645 22.1392 18.1762L25.3165 13.3636H34.8914L38.0687 18.1762Z" stroke="white" stroke-width="1.48793" stroke-miterlimit="10" stroke-linecap="square"/>
<path d="M28.5081 28.336V24.0582H31.6998V28.336" stroke="white" stroke-width="1.48793" stroke-miterlimit="10"/>
</g>
<defs>
<filter id="filter0_f" x="18.4718" y="47.7263" width="15.6425" height="10.016" filterUnits="userSpaceOnUse" color-interpolation-filters="sRGB">
<feFlood flood-opacity="0" result="BackgroundImageFix"/>
<feBlend mode="normal" in="SourceGraphic" in2="BackgroundImageFix" result="shape"/>
<feGaussianBlur stdDeviation="1.42693" result="effect1_foregroundBlur"/>
</filter>
<filter id="filter1_f" x="26.8046" y="47.7514" width="15.6425" height="10.016" filterUnits="userSpaceOnUse" color-interpolation-filters="sRGB">
<feFlood flood-opacity="0" result="BackgroundImageFix"/>
<feBlend mode="normal" in="SourceGraphic" in2="BackgroundImageFix" result="shape"/>
<feGaussianBlur stdDeviation="1.42693" result="effect1_foregroundBlur"/>
</filter>
<filter id="filter2_f" x="19.14" y="47.1441" width="22.3785" height="10.8911" filterUnits="userSpaceOnUse" color-interpolation-filters="sRGB">
<feFlood flood-opacity="0" result="BackgroundImageFix"/>
<feBlend mode="normal" in="SourceGraphic" in2="BackgroundImageFix" result="shape"/>
<feGaussianBlur stdDeviation="2.06003" result="effect1_foregroundBlur"/>
</filter>
<linearGradient id="paint0_linear" x1="30.3262" y1="23" x2="30.3262" y2="53.0311" gradientUnits="userSpaceOnUse">
<stop stop-color="#0066FF"/>
<stop offset="1" stop-color="#1254B5"/>
</linearGradient>
<clipPath id="clip0">
<rect width="60" height="59" fill="white"/>
</clipPath>
</defs>
</svg>
