<svg width="26" height="25" viewBox="0 0 26 25" fill="none" xmlns="http://www.w3.org/2000/svg">
<mask id="path-1-outside-1" maskUnits="userSpaceOnUse" x="0" y="0" width="26" height="25" fill="black">
<rect fill="white" width="26" height="25"/>
<path fill-rule="evenodd" clip-rule="evenodd" d="M10.1716 15.8284C11.7337 14.2663 14.2663 14.2663 15.8284 15.8284L23.1464 23.1464C23.3417 23.3417 23.6583 23.3417 23.8536 23.1464C24.0488 22.9512 24.0488 22.6346 23.8536 22.4393L16.5355 15.1213C14.9734 13.5592 14.9734 11.0266 16.5355 9.46447L23.1464 2.85355C23.3417 2.65829 23.3417 2.34171 23.1464 2.14645C22.9512 1.95118 22.6346 1.95118 22.4393 2.14645L15.8284 8.75736C14.2663 10.3195 11.7337 10.3195 10.1716 8.75736L3.56066 2.14645C3.3654 1.95118 3.04882 1.95118 2.85355 2.14645C2.65829 2.34171 2.65829 2.65829 2.85355 2.85355L9.46447 9.46447C11.0266 11.0266 11.0266 13.5592 9.46447 15.1213L2.14645 22.4393C1.95118 22.6346 1.95118 22.9512 2.14645 23.1464C2.34171 23.3417 2.65829 23.3417 2.85355 23.1464L10.1716 15.8284Z"/>
</mask>
<path fill-rule="evenodd" clip-rule="evenodd" d="M10.1716 15.8284C11.7337 14.2663 14.2663 14.2663 15.8284 15.8284L23.1464 23.1464C23.3417 23.3417 23.6583 23.3417 23.8536 23.1464C24.0488 22.9512 24.0488 22.6346 23.8536 22.4393L16.5355 15.1213C14.9734 13.5592 14.9734 11.0266 16.5355 9.46447L23.1464 2.85355C23.3417 2.65829 23.3417 2.34171 23.1464 2.14645C22.9512 1.95118 22.6346 1.95118 22.4393 2.14645L15.8284 8.75736C14.2663 10.3195 11.7337 10.3195 10.1716 8.75736L3.56066 2.14645C3.3654 1.95118 3.04882 1.95118 2.85355 2.14645C2.65829 2.34171 2.65829 2.65829 2.85355 2.85355L9.46447 9.46447C11.0266 11.0266 11.0266 13.5592 9.46447 15.1213L2.14645 22.4393C1.95118 22.6346 1.95118 22.9512 2.14645 23.1464C2.34171 23.3417 2.65829 23.3417 2.85355 23.1464L10.1716 15.8284Z" fill="#0066FF"/>
<path d="M2.14645 22.4393L1.08579 21.3787L2.14645 22.4393ZM9.46447 9.46447L8.40381 10.5251L9.46447 9.46447ZM9.46447 15.1213L8.40381 14.0607L9.46447 15.1213ZM22.4393 2.14645L23.5 3.20711L22.4393 2.14645ZM23.1464 2.85355L24.2071 3.91421L23.1464 2.85355ZM23.8536 22.4393L22.7929 23.5L23.8536 22.4393ZM10.1716 15.8284L11.2322 16.8891L10.1716 15.8284ZM24.2071 22.0858L16.8891 14.7678L14.7678 16.8891L22.0858 24.2071L24.2071 22.0858ZM15.4749 16.182L22.7929 23.5L24.9142 21.3787L17.5962 14.0607L15.4749 16.182ZM22.0858 1.79289L15.4749 8.40381L17.5962 10.5251L24.2071 3.91421L22.0858 1.79289ZM16.8891 9.81802L23.5 3.20711L21.3787 1.08579L14.7678 7.6967L16.8891 9.81802ZM2.5 3.20711L9.11091 9.81802L11.2322 7.6967L4.62132 1.08579L2.5 3.20711ZM10.5251 8.40381L3.91421 1.79289L1.79289 3.91421L8.40381 10.5251L10.5251 8.40381ZM3.20711 23.5L10.5251 16.182L8.40381 14.0607L1.08579 21.3787L3.20711 23.5ZM9.11091 14.7678L1.79289 22.0858L3.91421 24.2071L11.2322 16.8891L9.11091 14.7678ZM1.08579 24.2071C1.86683 24.9882 3.13317 24.9882 3.91421 24.2071L1.79289 22.0858C2.18342 21.6953 2.81658 21.6953 3.20711 22.0858L1.08579 24.2071ZM1.08579 21.3787C0.304738 22.1597 0.304738 23.4261 1.08579 24.2071L3.20711 22.0858C3.59763 22.4763 3.59763 23.1095 3.20711 23.5L1.08579 21.3787ZM8.40381 10.5251C9.38012 11.5014 9.38012 13.0843 8.40381 14.0607L10.5251 16.182C12.673 14.0341 12.673 10.5517 10.5251 8.40381L8.40381 10.5251ZM1.79289 1.08579C1.01184 1.86684 1.01185 3.13317 1.79289 3.91421L3.91421 1.79289C4.30474 2.18342 4.30474 2.81658 3.91421 3.20711L1.79289 1.08579ZM4.62132 1.08579C3.84027 0.304738 2.57394 0.304738 1.79289 1.08579L3.91421 3.20711C3.52369 3.59763 2.89052 3.59763 2.5 3.20711L4.62132 1.08579ZM14.7678 7.6967C13.7915 8.67301 12.2085 8.67301 11.2322 7.6967L9.11091 9.81802C11.2588 11.9659 14.7412 11.9659 16.8891 9.81802L14.7678 7.6967ZM24.2071 1.08579C23.4261 0.304738 22.1597 0.304739 21.3787 1.08579L23.5 3.20711C23.1095 3.59763 22.4763 3.59763 22.0858 3.20711L24.2071 1.08579ZM24.2071 3.91421C24.9882 3.13316 24.9882 1.86683 24.2071 1.08579L22.0858 3.20711C21.6953 2.81658 21.6953 2.18342 22.0858 1.79289L24.2071 3.91421ZM17.5962 14.0607C16.6199 13.0843 16.6199 11.5014 17.5962 10.5251L15.4749 8.40381C13.327 10.5517 13.327 14.0341 15.4749 16.182L17.5962 14.0607ZM24.9142 24.2071C25.6953 23.4261 25.6953 22.1597 24.9142 21.3787L22.7929 23.5C22.4024 23.1095 22.4024 22.4763 22.7929 22.0858L24.9142 24.2071ZM16.8891 14.7678C14.7412 12.6199 11.2588 12.6199 9.11091 14.7678L11.2322 16.8891C12.2085 15.9128 13.7915 15.9128 14.7678 16.8891L16.8891 14.7678ZM22.0858 24.2071C22.8668 24.9882 24.1332 24.9882 24.9142 24.2071L22.7929 22.0858C23.1834 21.6953 23.8166 21.6953 24.2071 22.0858L22.0858 24.2071Z" fill="#0066FF" mask="url(#path-1-outside-1)"/>
</svg>
