<svg width="26" height="25" viewBox="0 0 26 25" fill="none" xmlns="http://www.w3.org/2000/svg">
<path fill-rule="evenodd" clip-rule="evenodd" d="M14.7678 16.8891L22.0858 24.2071C22.8668 24.9882 24.1332 24.9882 24.9142 24.2071C25.6953 23.4261 25.6953 22.1597 24.9142 21.3787L17.5962 14.0607C16.6199 13.0843 16.6199 11.5014 17.5962 10.5251L24.2071 3.91421C24.9882 3.13317 24.9882 1.86684 24.2071 1.08579C23.4261 0.304738 22.1597 0.304739 21.3787 1.08579L14.7678 7.6967C13.7915 8.67301 12.2085 8.67301 11.2322 7.6967L4.62132 1.08579C3.84027 0.304738 2.57394 0.304738 1.79289 1.08579C1.01184 1.86684 1.01185 3.13317 1.79289 3.91421L8.40381 10.5251C9.38012 11.5014 9.38012 13.0843 8.40381 14.0607L1.08579 21.3787C0.304738 22.1597 0.304738 23.4261 1.08579 24.2071C1.86683 24.9882 3.13317 24.9882 3.91421 24.2071L11.2322 16.8891C12.2085 15.9128 13.7915 15.9128 14.7678 16.8891Z" fill="#0066FF"/>
</svg>
