<svg width="28" height="28" viewBox="0 0 28 28" fill="none" xmlns="http://www.w3.org/2000/svg">
<path d="M14 26.25C7.245 26.25 1.75 20.755 1.75 14C1.75 7.245 7.245 1.75 14 1.75C20.755 1.75 26.25 7.245 26.25 14C26.25 20.755 20.755 26.25 14 26.25ZM14 3.5C8.21012 3.5 3.5 8.21012 3.5 14C3.5 19.7899 8.21012 24.5 14 24.5C19.7899 24.5 24.5 19.7899 24.5 14C24.5 8.21012 19.7899 3.5 14 3.5Z" fill="#0066FF"/>
<path d="M14.875 0H13.125V6.125H14.875V0Z" fill="#0066FF"/>
<path d="M28 13.125H21.875V14.875H28V13.125Z" fill="#0066FF"/>
<path d="M14.875 21.875H13.125V28H14.875V21.875Z" fill="#0066FF"/>
<path d="M6.125 13.125H0V14.875H6.125V13.125Z" fill="#0066FF"/>
<path d="M14 17.5C15.933 17.5 17.5 15.933 17.5 14C17.5 12.067 15.933 10.5 14 10.5C12.067 10.5 10.5 12.067 10.5 14C10.5 15.933 12.067 17.5 14 17.5Z" fill="#0066FF"/>
</svg>
