<svg width="32" height="31" viewBox="0 0 32 31" fill="none" xmlns="http://www.w3.org/2000/svg">
<path d="M30.5582 14.408L16.6066 0.456399C16.4631 0.311773 16.2923 0.196988 16.1041 0.118657C15.916 0.040327 15.7142 0 15.5104 0C15.3066 0 15.1049 0.040327 14.9167 0.118657C14.7286 0.196988 14.5578 0.311773 14.4142 0.456399L0.450206 14.408C0.306393 14.5524 0.192575 14.7238 0.115312 14.9124C0.0380487 15.101 -0.00113298 15.303 2.49343e-05 15.5068C0.00118285 15.7106 0.0426573 15.9121 0.122059 16.0998C0.20146 16.2875 0.317218 16.4576 0.462663 16.6004L14.4142 30.5519C15.0122 31.1499 15.9962 31.1499 16.6066 30.5519L30.5582 16.6004C30.7028 16.4568 30.8176 16.286 30.8959 16.0979C30.9743 15.9097 31.0146 15.708 31.0146 15.5042C31.0146 15.3004 30.9743 15.0986 30.8959 14.9105C30.8176 14.7223 30.7028 14.5516 30.5582 14.408ZM18.5997 19.4031V15.5166H12.3962V20.1755H9.29451V13.972C9.29451 13.1125 9.97963 12.4274 10.8391 12.4149H18.5997V8.5533L24.0433 13.972L18.5997 19.4031Z" fill="#0066FF"/>
</svg>
