<svg width="160" height="191" viewBox="0 0 160 191" fill="none" xmlns="http://www.w3.org/2000/svg">
<g opacity="0.6" filter="url(#filter0_f)">
<ellipse cx="80.1889" cy="173.948" rx="19.004" ry="3.56325" fill="#606060" fill-opacity="0.6"/>
</g>
<path d="M127.683 88.7663C127.683 114.047 116.431 121.092 101.151 143.065C85.8709 165.039 86.7209 175.135 80.1808 175.135C73.6408 175.135 73.8496 163.257 59.2108 143.065C44.572 122.874 32.6783 114.047 32.6783 88.7663C32.6783 63.4861 53.9459 40.6008 80.1808 40.6008C106.416 40.6008 127.683 63.4861 127.683 88.7663Z" fill="#0066FF" stroke="white" stroke-width="2.38"/>
<circle cx="80.1098" cy="89.4492" r="35.9492" fill="white"/>
<path d="M64.1875 91.4967V108.747H95.8125V91.4967" stroke="#0066FF" stroke-width="4" stroke-miterlimit="10" stroke-linecap="square"/>
<path d="M101.524 81.4342C101.347 83.0157 100.593 84.4766 99.407 85.5374C98.2208 86.5982 96.6851 87.1845 95.0937 87.1842C94.1275 87.1693 93.1762 86.9427 92.307 86.5205C91.4377 86.0983 90.6716 85.4907 90.0625 84.7405C89.4619 85.5003 88.6975 86.1146 87.8264 86.5378C86.9552 86.9609 85.9997 87.1819 85.0312 87.1842C84.0645 87.172 83.1124 86.9466 82.2427 86.5242C81.373 86.1018 80.6073 85.4927 80 84.7405C79.3927 85.4927 78.6269 86.1018 77.7573 86.5242C76.8876 86.9466 75.9355 87.172 74.9687 87.1842C74.0002 87.1819 73.0448 86.9609 72.1736 86.5378C71.3024 86.1146 70.538 85.5003 69.9375 84.7405C69.3237 85.4854 68.5566 86.0894 67.6884 86.5111C66.8202 86.9328 65.8712 87.1624 64.9062 87.1842C63.3148 87.1845 61.7792 86.5982 60.5929 85.5374C59.4067 84.4766 58.6531 83.0157 58.4763 81.4342L67.0625 68.4967H92.9375L101.524 81.4342Z" stroke="#0066FF" stroke-width="4" stroke-miterlimit="10" stroke-linecap="square"/>
<path d="M75.6875 108.747V97.2467H84.3125V108.747" stroke="#0066FF" stroke-width="4" stroke-miterlimit="10"/>
<defs>
<filter id="filter0_f" x="50.1089" y="159.309" width="60.1599" height="29.2784" filterUnits="userSpaceOnUse" color-interpolation-filters="sRGB">
<feFlood flood-opacity="0" result="BackgroundImageFix"/>
<feBlend mode="normal" in="SourceGraphic" in2="BackgroundImageFix" result="shape"/>
<feGaussianBlur stdDeviation="5.53796" result="effect1_foregroundBlur"/>
</filter>
</defs>
</svg>
