<svg width="60" height="59" viewBox="0 0 60 59" fill="none" xmlns="http://www.w3.org/2000/svg">
<g clip-path="url(#clip0)">
<g opacity="0.6" filter="url(#filter0_f)">
<ellipse cx="26.2931" cy="52.7343" rx="4.89662" ry="0.918116" transform="rotate(-15 26.2931 52.7343)" fill="#606060" fill-opacity="0.6"/>
</g>
<path d="M32.4331 28.3668C34.119 34.6587 31.7883 37.1626 29.4507 43.6503C27.1131 50.1381 27.998 52.5941 26.3702 53.0303C24.7425 53.4664 24.0024 50.4964 19.0125 46.4472C14.0227 42.3981 10.4738 40.9943 8.78796 34.7025C7.10207 28.4107 10.869 21.2967 17.3985 19.5471C23.9279 17.7976 30.7472 22.075 32.4331 28.3668Z" fill="#0066FF" stroke="white" stroke-width="0.613237"/>
<circle cx="20.6384" cy="31.7094" r="9.26276" transform="rotate(-15 20.6384 31.7094)" fill="white"/>
<path d="M16.7497 33.2975L17.9 37.5908L25.73 35.4928L24.5796 31.1995" stroke="#0066FF" stroke-width="1.03065" stroke-miterlimit="10" stroke-linecap="square"/>
<path d="M25.3226 28.3163C25.3843 28.7216 25.2951 29.1352 25.0722 29.4779C24.8492 29.8206 24.5081 30.0684 24.1141 30.1739C23.8738 30.2343 23.6232 30.241 23.3798 30.1936C23.1365 30.1462 22.9063 30.0458 22.7054 29.8995C22.6074 30.1284 22.4591 30.3321 22.2717 30.4952C22.0842 30.6583 21.8624 30.7766 21.6227 30.8415C21.3826 30.9026 21.1318 30.9096 20.8883 30.8622C20.6448 30.8148 20.4146 30.714 20.2141 30.567C20.1139 30.7946 19.9649 30.9969 19.7778 31.1598C19.5906 31.3226 19.3699 31.4418 19.1314 31.509C18.8914 31.5727 18.6401 31.5811 18.3962 31.5336C18.1523 31.4861 17.9221 31.3839 17.7227 31.2346C17.6205 31.4607 17.4708 31.6619 17.284 31.8245C17.0971 31.987 16.8775 32.1071 16.64 32.1766C16.2461 32.2822 15.8268 32.2382 15.4623 32.0529C15.0979 31.8675 14.8139 31.554 14.6646 31.1721L15.9277 27.3825L22.334 25.666L25.3226 28.3163Z" stroke="#0066FF" stroke-width="1.03065" stroke-miterlimit="10" stroke-linecap="square"/>
<path d="M20.7473 36.8278L19.9803 33.9657L22.1158 33.3935L22.8827 36.2557" stroke="#0066FF" stroke-width="1.03065" stroke-miterlimit="10"/>
<g opacity="0.6" filter="url(#filter1_f)">
<ellipse cx="34.6258" cy="52.7595" rx="4.89662" ry="0.918116" transform="rotate(15 34.6258 52.7595)" fill="#606060" fill-opacity="0.6"/>
</g>
<path d="M52.127 34.7265C50.4411 41.0183 47.1707 42.0214 41.9024 46.4712C36.6341 50.921 36.1724 53.4904 34.5447 53.0543C32.9169 52.6181 33.761 49.6759 31.4642 43.6743C29.1674 37.6727 26.7959 34.6826 28.4818 28.3908C30.1677 22.099 36.987 17.8216 43.5164 19.5711C50.0459 21.3207 53.8128 28.4347 52.127 34.7265Z" fill="#0066FF" stroke="white" stroke-width="0.613237"/>
<circle cx="40.2412" cy="31.724" r="9.26276" transform="rotate(15 40.2412 31.724)" fill="white"/>
<path d="M36.034 31.1428L34.8836 35.436L42.7136 37.5341L43.8639 33.2408" stroke="#0066FF" stroke-width="1.03065" stroke-miterlimit="10" stroke-linecap="square"/>
<path d="M45.949 31.1153C45.7997 31.4972 45.5157 31.8108 45.1513 31.9961C44.7868 32.1814 44.3675 32.2255 43.9735 32.1198C43.7353 32.052 43.5149 31.9325 43.3278 31.7698C43.1408 31.607 42.9916 31.405 42.8908 31.1778C42.6915 31.3271 42.4612 31.4293 42.2173 31.4768C41.9734 31.5243 41.7221 31.516 41.4822 31.4523C41.2437 31.3851 41.023 31.2658 40.8358 31.103C40.6487 30.9402 40.4997 30.7378 40.3995 30.5103C40.199 30.6572 39.9688 30.758 39.7253 30.8055C39.4818 30.8529 39.231 30.8458 38.9909 30.7847C38.7512 30.7199 38.5294 30.6015 38.3419 30.4384C38.1545 30.2753 38.0062 30.0717 37.9082 29.8427C37.7065 29.9874 37.4763 30.0869 37.2332 30.1342C36.9901 30.1816 36.7399 30.1758 36.4995 30.1172C36.1055 30.0117 35.7644 29.7639 35.5414 29.4212C35.3185 29.0785 35.2293 28.6649 35.291 28.2595L38.2796 25.6092L44.6859 27.3258L45.949 31.1153Z" stroke="#0066FF" stroke-width="1.03065" stroke-miterlimit="10" stroke-linecap="square"/>
<path d="M37.7309 36.1989L38.4978 33.3368L40.6332 33.909L39.8663 36.7711" stroke="#0066FF" stroke-width="1.03065" stroke-miterlimit="10"/>
<g opacity="0.6" filter="url(#filter2_f)">
<ellipse cx="30.3174" cy="52.8142" rx="5.87128" ry="1.10087" fill="#606060" fill-opacity="0.6"/>
</g>
<path d="M44.9908 26.4974C44.9908 34.3078 41.5143 36.4845 36.7936 43.2731C32.0728 50.0618 32.3354 53.1809 30.3149 53.1809C28.2943 53.1809 28.3588 49.5114 23.8362 43.2731C19.3135 37.0349 15.639 34.3078 15.639 26.4974C15.639 18.6871 22.2096 11.6167 30.3149 11.6167C38.4202 11.6167 44.9908 18.6871 44.9908 26.4974Z" fill="#0066FF" stroke="white" stroke-width="0.735301"/>
<circle cx="30.293" cy="26.7084" r="11.1065" fill="white"/>
<path d="M25.2705 27.341V32.6704H34.9901V27.341" stroke="#0066FF" stroke-width="1.2358" stroke-miterlimit="10" stroke-linecap="square"/>
<path d="M36.7454 24.2322C36.6911 24.7208 36.4595 25.1722 36.0949 25.4999C35.7303 25.8276 35.2583 26.0088 34.7692 26.0087C34.4723 26.0041 34.1799 25.9341 33.9128 25.8036C33.6456 25.6732 33.4101 25.4855 33.2229 25.2537C33.0383 25.4884 32.8034 25.6782 32.5357 25.809C32.2679 25.9397 31.9743 26.008 31.6766 26.0087C31.3795 26.0049 31.0869 25.9353 30.8196 25.8048C30.5523 25.6743 30.317 25.4861 30.1303 25.2537C29.9437 25.4861 29.7083 25.6743 29.441 25.8048C29.1737 25.9353 28.8811 26.0049 28.584 26.0087C28.2863 26.008 27.9927 25.9397 27.7249 25.809C27.4572 25.6782 27.2223 25.4884 27.0377 25.2537C26.8491 25.4838 26.6133 25.6704 26.3465 25.8007C26.0796 25.931 25.788 26.0019 25.4914 26.0087C25.0023 26.0088 24.5303 25.8276 24.1657 25.4999C23.8012 25.1722 23.5695 24.7208 23.5152 24.2322L26.1541 20.2352H34.1065L36.7454 24.2322Z" stroke="#0066FF" stroke-width="1.2358" stroke-miterlimit="10" stroke-linecap="square"/>
<path d="M28.8049 32.6704V29.1175H31.4557V32.6704" stroke="#0066FF" stroke-width="1.2358" stroke-miterlimit="10"/>
</g>
<defs>
<filter id="filter0_f" x="18.4719" y="47.7263" width="15.6425" height="10.016" filterUnits="userSpaceOnUse" color-interpolation-filters="sRGB">
<feFlood flood-opacity="0" result="BackgroundImageFix"/>
<feBlend mode="normal" in="SourceGraphic" in2="BackgroundImageFix" result="shape"/>
<feGaussianBlur stdDeviation="1.42693" result="effect1_foregroundBlur"/>
</filter>
<filter id="filter1_f" x="26.8046" y="47.7514" width="15.6425" height="10.016" filterUnits="userSpaceOnUse" color-interpolation-filters="sRGB">
<feFlood flood-opacity="0" result="BackgroundImageFix"/>
<feBlend mode="normal" in="SourceGraphic" in2="BackgroundImageFix" result="shape"/>
<feGaussianBlur stdDeviation="1.42693" result="effect1_foregroundBlur"/>
</filter>
<filter id="filter2_f" x="21.0242" y="48.2915" width="18.5864" height="9.04555" filterUnits="userSpaceOnUse" color-interpolation-filters="sRGB">
<feFlood flood-opacity="0" result="BackgroundImageFix"/>
<feBlend mode="normal" in="SourceGraphic" in2="BackgroundImageFix" result="shape"/>
<feGaussianBlur stdDeviation="1.71095" result="effect1_foregroundBlur"/>
</filter>
<clipPath id="clip0">
<rect width="60" height="59" fill="white"/>
</clipPath>
</defs>
</svg>
