<svg width="43" height="22" viewBox="0 0 43 22" fill="none" xmlns="http://www.w3.org/2000/svg">
<g clip-path="url(#clip0)">
<path d="M13.3334 21.3334H8.00004V14.6667H5.33337V9.33336C5.33337 8.62612 5.61433 7.94784 6.11442 7.44774C6.61452 6.94765 7.2928 6.66669 8.00004 6.66669H13.3334C14.0406 6.66669 14.7189 6.94765 15.219 7.44774C15.7191 7.94784 16 8.62612 16 9.33336V14.6667H13.3334V21.3334Z" fill="#FFB800"/>
<path d="M10.6667 5.33336C12.1394 5.33336 13.3333 4.13946 13.3333 2.6667C13.3333 1.19394 12.1394 3.05176e-05 10.6667 3.05176e-05C9.19391 3.05176e-05 8 1.19394 8 2.6667C8 4.13946 9.19391 5.33336 10.6667 5.33336Z" fill="#FFB800"/>
</g>
<g clip-path="url(#clip1)">
<path d="M34.6667 21.3334H29.3334V14.6667H26.6667V9.33337C26.6667 8.62612 26.9477 7.94785 27.4478 7.44775C27.9479 6.94765 28.6262 6.6667 29.3334 6.6667H34.6667C35.374 6.6667 36.0523 6.94765 36.5524 7.44775C37.0525 7.94785 37.3334 8.62612 37.3334 9.33337V14.6667H34.6667V21.3334Z" fill="#FFB800"/>
<path d="M32 5.33337C33.4728 5.33337 34.6667 4.13946 34.6667 2.6667C34.6667 1.19395 33.4728 3.8147e-05 32 3.8147e-05C30.5273 3.8147e-05 29.3334 1.19395 29.3334 2.6667C29.3334 4.13946 30.5273 5.33337 32 5.33337Z" fill="#FFB800"/>
</g>
<defs>
<clipPath id="clip0">
<rect width="21.3333" height="21.3333" fill="white"/>
</clipPath>
<clipPath id="clip1">
<rect x="21.3334" y="2.28882e-05" width="21.3333" height="21.3333" fill="white"/>
</clipPath>
</defs>
</svg>
