<svg width="22" height="22" viewBox="0 0 22 22" fill="none" xmlns="http://www.w3.org/2000/svg">
<g clip-path="url(#clip0)">
<path d="M13.3334 21.3334H8.00004V14.6667H5.33337V9.33335C5.33337 8.62611 5.61433 7.94783 6.11442 7.44774C6.61452 6.94764 7.2928 6.66669 8.00004 6.66669H13.3334C14.0406 6.66669 14.7189 6.94764 15.219 7.44774C15.7191 7.94783 16 8.62611 16 9.33335V14.6667H13.3334V21.3334Z" fill="#77B03E"/>
<path d="M10.6667 5.33335C12.1394 5.33335 13.3333 4.13944 13.3333 2.66668C13.3333 1.19392 12.1394 1.52588e-05 10.6667 1.52588e-05C9.19391 1.52588e-05 8 1.19392 8 2.66668C8 4.13944 9.19391 5.33335 10.6667 5.33335Z" fill="#77B03E"/>
</g>
<defs>
<clipPath id="clip0">
<rect width="21.3333" height="21.3333" fill="white"/>
</clipPath>
</defs>
</svg>
